<svg width="176" height="228" xmlns="http://www.w3.org/2000/svg" xmlns:xlink="http://www.w3.org/1999/xlink" overflow="hidden"><defs><clipPath id="clip0"><rect x="0" y="0" width="176" height="228"/></clipPath><clipPath id="clip1"><rect x="0" y="0" width="176" height="227"/></clipPath><clipPath id="clip2"><rect x="0" y="0" width="176" height="227"/></clipPath><clipPath id="clip3"><rect x="0" y="0" width="176" height="227"/></clipPath><clipPath id="clip4"><rect x="0" y="0" width="176" height="227"/></clipPath><clipPath id="clip5"><rect x="7" y="29" width="156" height="155"/></clipPath></defs><g clip-path="url(#clip0)"><g clip-path="url(#clip1)"><g clip-path="url(#clip2)"><g clip-path="url(#clip3)"><g clip-path="url(#clip4)"><g clip-path="url(#clip5)"><path d="M0 0C4.74062 10.4414 6.49757 22.0608 6.07052 33.4681 5.54028 46.2483 1.81714 59.0027-5.26513 69.7106-13.2187 81.7055-24.4024 91.7141-37.6269 97.5295-48.6186 102.359-60.8141 104.09-72.7487 103.376-79.9342 102.803-87.1168 101.511-93.8551 98.8938-104.219 94.9471-113.526 88.4438-121.118 80.3928-126.096 75.0531-130.424 69.0686-133.672 62.5194-141.204 47.1482-142.757 29.1861-139.031 12.5624-135.738-2.40184-126.951-15.8295-115.443-25.804-106.615-33.6372-95.7897-39.2147-84.2535-41.7341-66.575-45.4715-47.3661-43.4194-31.5363-34.4139-17.8705-26.4976-6.53197-14.4254 0 0M9.50417 32.4592 9.50417 27.3603C9.33793 26.1537 9.27774 24.9384 9.21755 23.7232 8.26026 11.1923 4.31929-1.19805-2.73431-11.6481-11.6882-25.033-24.5598-35.9559-39.6303-41.8-47.6126-44.904-56.1537-46.3486-64.6805-46.7871L-71.1408-46.7871C-84.2535-46.2483-97.3604-42.5939-108.418-35.4228-119.355-28.481-128.639-18.9252-135.142-7.71282-140.401 1.28977-143.488 11.4961-144.509 21.8544-145.389 30.2179-144.87 38.7045-143.225 46.9447-140.679 59.4956-134.64 71.2755-126.145 80.837-122.07 85.549-117.435 89.7737-112.399 93.4366-102.072 101.003-89.682 105.612-76.9648 106.91-74.563 107.22-72.1382 107.174-69.7307 107.412L-64.9327 107.412C-62.8946 107.131-60.8281 107.194-58.7934 106.908-47.5696 105.778-36.5664 102.15-27.0221 96.1021-16.446 89.3696-7.43194 80.1635-0.96876 69.4183 2.54515 63.5111 5.26513 57.1167 6.9275 50.4415 8.46662 44.5658 9.1459 38.5097 9.50417 32.4592" fill="#000000" fill-rule="nonzero" fill-opacity="1" transform="matrix(1.00337 0 0 -1 152.989 137.003)"/><path d="M0 0C0.03726-4.41961-0.304099-8.82775-0.599026-13.233-1.34709-14.1273-2.64546-14.4397-3.70594-13.941-3.83491-13.6572-4.25624-13.262-3.86071-12.9868-2.91775-12.0264-2.26426-10.7624-2.2356-9.39525-6.41732-8.71884-10.6678-8.6042-14.8983-8.65865-15.4887-9.24908-15.6922-10.3239-16.6122-10.536-17.2256-10.7137-17.5781-10.0344-17.6211-9.5271-17.9335-7.61824-17.8733-5.63199-17.3603-3.76326-17.26-3.40499-16.9132-3.22442-16.6581-2.99226-15.8556-3.42505-15.4342-4.35655-14.5687-4.67183-11.6452-5.06449-8.69305-5.21353-5.75237-5.4199-4.87848-5.50588-3.96103-5.74951-3.11838-5.37977-2.12669-5.10749-1.71969-3.80052-2.23273-2.95787-2.69705-2.0665-3.55117-1.48467-4.19032-0.733736-3.10118 0.349671-1.38722 0.776728 0 0" fill="#000000" fill-rule="nonzero" fill-opacity="1" transform="matrix(1.00337 0 0 -1 155.934 103.065)"/><path d="M0 0C0.389797-2.08656 1.1264-4.1158 1.22671-6.25108 0.865865-6.36573 0.510175-6.48324 0.157638-6.60362-0.361135-5.97593-0.7452-5.09602-1.61938-4.91259-4.74348-5.26513-7.77014-6.16796-10.8799-6.60935-12.0293-6.80425-13.233-6.88737-14.2563-7.50646-14.4511-8.44369-14.4913-9.60448-15.4457-10.1175-15.718-9.90543-16.0906-9.76785-16.2282-9.42392-17.1078-7.35455-17.3374-5.09316-17.7444-2.90055-17.8848-2.11809-17.6154-0.897106-16.6237-0.902839-15.4629-1.2955-15.6005-2.89195-14.5282-3.40499-10.5732-2.75437-6.61508-2.09516-2.69132-1.28977-1.57037-0.891374-1.56205 0.510175-1.12353 1.43881-0.644885 1.06048-0.0541703 0.67068 0 0" fill="#000000" fill-rule="nonzero" fill-opacity="1" transform="matrix(1.00337 0 0 -1 154.162 90.3504)"/><path d="M0 0C0.163371-1.89195-0.515908-3.69161-1.11207-5.44885-1.19203-5.76957-1.39008-5.99026-1.70508-6.11351-2.26999-5.93007-2.6082-5.4199-2.9894-5.00431-5.05303-5.41703-7.10806-5.88421-9.12584-6.48926-7.57238-7.87361-6.42878-9.79365-4.45085-10.6363-4.00402-10.8656-3.40184-10.8455-3.03812-11.1981-2.66552-12.8063-3.11838-14.9215-4.81801-15.6008-5.98453-12.548-8.99399-10.9286-10.8427-8.38064-12.0522-6.86157-14.0614-6.46346-15.8584-6.0966-17.0565-5.83836-18.0797-7.6555-19.229-6.6982-19.1087-4.87562-18.4924-3.14131-18.074-1.37604-17.9562-0.770995-17.5925-0.275151-17.1396 0.125824-16.9759 0.123245-16.6495 0.117512-16.4861 0.117512-15.8897-0.581829-15.6693-1.4904-15.417-2.35025-13.7057-2.93494-11.9003-3.82345-10.0545-3.31356-7.93352-2.83749-5.78934-2.46203-3.67154-1.96618-2.23273-1.74549-1.38722-0.355403 0 0" fill="#000000" fill-rule="nonzero" fill-opacity="1" transform="matrix(1.00337 0 0 -1 153.926 121.709)"/><path d="M0 0C0.146174-1.06334 0.988823-1.92892 0.87733-3.04386-0.400975-4.01835-1.90313-4.81801-3.56263-4.71482-3.84351-3.17857-1.97191-2.36171-1.97736-0.882775-1.84294 1.07194-2.35598 3.03239-3.25882 4.75782-3.77759 5.71798-5.09029 6.00459-5.95014 5.33105-7.06794 2.30439-6.31414-0.951563-5.99886-4.05274-5.83262-5.13901-6.35971-6.21096-7.13099-6.94183-9.55289-8.82489-13.4394-8.2144-15.2795-5.79536-16.8928-3.726-17.3259-0.917169-16.9218 1.62798-17.4979 1.86013-18.074 2.08369-18.6443 2.31872-18.6472 2.67412-18.6498 3.02953-18.6498 3.38493-17.0508 4.23331-15.5231 5.27659-13.7719 5.79536-12.9149 6.12211-12.2239 4.84093-12.8547 4.24764-13.554 3.39353-14.6518 2.66266-14.6747 1.45027-14.7547-0.100315-14.8263-1.76842-14.0671-3.17857-13.5827-4.13013-12.5881-4.861-11.5073-4.89826-10.4385-4.73202-9.82804-3.56836-9.76785-2.57667-9.8567-0.573231-10.4414 1.39295-10.344 3.40786-10.344 4.81801-9.92549 6.42019-8.67012 7.22844-7.29723 8.13415-5.45716 8.61279-3.89797 7.90485-2.00917 7.05647-0.793925 5.14475-0.366868 3.16997-0.208943 2.11809-0.169103 1.05188 0 0" fill="#000000" fill-rule="nonzero" fill-opacity="1" transform="matrix(1.00337 0 0 -1 149.886 80.0179)"/><path d="M0 0C1.9722-0.653483 4.50302 1.35856 3.77788 3.46518 3.02093 4.60591 2.08398 5.77243 0.739468 6.22529-0.438235 5.47435-1.53597 4.56005-2.3385 3.40786-2.57954 2.634-2.08083 1.87446-1.59616 1.30983-1.12353 0.813988-0.667527 0.235025 0 0M6.8759 1.52193C7.06249-0.573231 5.35426-2.61393 3.24735-2.76011 1.99513-2.92921 0.788192-2.11236-0.444254-2.53081-0.945831-4.51133-1.7538-6.46604-1.61364-8.5526-1.49871-9.60162-2.85756-9.52423-3.51935-9.24048-5.13615-8.81629-5.85555-6.64661-4.94698-5.28519-4.14131-4.08714-3.35025-2.8203-3.11236-1.36716-2.98338-0.404128-3.46203 0.504443-4.02093 1.25251-4.19318 1.21812-4.53999 1.15219-4.71167 1.1178-5.73804 0.192032-6.84724-0.676412-7.6469-1.82001-7.79565-2.53081-7.66696-3.46231-8.31185-3.94956-8.93667-4.09573-9.32073-3.47091-9.722-3.10978-10.4901-2.16968-11.3411-1.2955-12.0665-0.323875-12.393 0.00286615-12.2755 0.490112-12.3213 0.897106-11.5446 1.33563-10.6389 1.10347-9.7991 1.23818-9.03125 1.60505-8.56092 2.34451-7.98769 2.94067-6.31672 4.62024-4.69476 6.34567-3.00086 8.0023-1.94039 8.95673-2.2356 10.4901-1.93465 11.7484 0.177702 10.8484 1.45314 8.84782 3.22758 7.4864 5.02724 5.96733 6.61508 3.93523 6.8759 1.52193" fill="#000000" fill-rule="nonzero" fill-opacity="1" transform="matrix(1.00337 0 0 -1 133.701 65.475)"/><path d="M0 0C4.97851 10.9057 5.6148 23.6601 1.99198 35.0645-0.0601892 41.6567-3.67728 47.7329-8.44082 52.7258-13.1127 57.7874-18.8252 61.9233-25.1878 64.5888-28.5555 66.0018-32.121 66.8674-35.6896 67.6011-40.4472 68.2833-45.311 68.2947-50.0803 67.7416-55.0588 67.1483-59.9485 65.7696-64.4799 63.6229-77.1798 57.3919-87.2973 45.5575-90.5074 31.671-93.0411 20.7309-91.9864 8.88794-87.0021-1.22671-83.8981-7.39754-79.3982-12.8232-74.1044-17.2371-68.696-21.7538-62.2529-25.0215-55.3884-26.6263-44.6661-29.2147-33.0554-28.1227-23.0642-23.4165-17.8647-20.9-13.1728-17.3829-9.16596-13.2302-5.43738-9.34624-2.22127-4.92119 0 0M8.18832 21.2382C8.27459 14.8753 7.44913 8.45516 5.3107 2.4391-0.22356-12.7744-13.1614-25.1362-28.7045-29.7535-36.8705-32.0949-45.5891-32.3675-53.9324-30.8768-60.8169-29.6389-67.4463-26.9504-73.1758-22.9264-82.6169-16.3514-90.1434-6.76986-93.494 4.30783-95.4085 10.6248-96.0764 17.3001-95.6063 23.8751-95.2394 30.8656-93.3564 37.7644-90.1807 44.0012-84.6031 54.6748-75.3799 63.4825-64.2735 68.2259-59.0198 70.4873-53.3449 71.737-47.6297 71.9519-40.45 72.2901-33.1445 71.6567-26.3314 69.252-10.6191 63.7203 2.05503 50.2007 6.43738 34.113 7.66983 29.937 7.95644 25.5632 8.18832 21.2382" fill="#000000" fill-rule="nonzero" fill-opacity="1" transform="matrix(1.00337 0 0 -1 129.235 127.364)"/><path d="M0 0C1.04328-0.965894 0.243623-2.83749-1.02895-3.20149-1.77702-0.183434-4.97851 0.851248-7.32876 2.32445-8.33478 1.2783-9.55003 0.312411-10.0688-1.08627-9.56149-2.31012-8.19433-2.78017-7.14246-3.43079-5.94727-4.31929-4.40815-3.1585-3.18172-3.92663-3.63142-5.63773-4.53999-7.52939-6.36-8.08829-6.77272-5.91574-8.67872-4.46833-10.5675-3.58556-11.2038-3.23302-11.7942-3.83491-12.1385-4.31356-12.7028-5.11609-13.3534-5.90141-13.6515-6.85011-13.8435-7.48066-13.4769-8.09402-12.9722-8.44942-11.7312-9.40958-10.493-10.4185-9.03985-11.0404-7.95644-11.0519-6.92176-10.642-5.86129-10.4557-5.02179-12.121-7.02208-13.961-8.67012-13.3591-11.3012-12.2356-13.4107-10.2408-15.8011-8.71597-16.8447-7.97078-18.1714-7.37748-18.6099-6.07052-16.7985-5.30812-15.6836-3.61995-14.7464-1.98051-13.3763 0.392663-11.3328 2.42763-10.6134 5.13328-10.5073 5.48009-10.4643 5.89281-10.1061 6.08771-9.42105 6.22242-8.88794 5.70365-8.36344 5.35684-5.70651 3.37346-2.68845 1.93752 0 0" fill="#000000" fill-rule="nonzero" fill-opacity="1" transform="matrix(1.00337 0 0 -1 127.331 50.3016)"/><path d="M0 0C1.47894-1.8888 1.84007-4.51993 1.15793-6.79279 0.664948-8.50675-0.748066-9.7134-2.15563-10.6994-4.50273-12.2098-7.85899-12.1582-10.0115-10.3121-10.9029-9.41245-9.91403-8.18287-9.12297-7.61537-7.59818-7.20838-6.21955-8.64719-4.68043-8.12841-3.43939-7.4778-2.45371-6.42592-1.82574-5.17914-1.48753-3.47091-2.6168-1.54199-4.38235-1.25824-5.40843-1.07481-6.12784-1.97191-6.84438-2.54228-8.23733-3.85498-9.94842-4.75208-11.6309-5.62626-13.1327-2.69705-15.0158 0.100315-15.7896 3.3448-13.1385 4.90686-10.4013 6.31156-7.69591 7.77301-6.12784 8.86502-3.83491 6.3342-5.18201 4.92405-5.65206 4.32503-6.31987 3.90943-6.99915 3.57983-8.47808 2.88335-9.96591 2.20121-11.4302 1.4732-11.1293 0.547435-10.8054-0.3726-10.3984-1.25824-9.45258-0.722271-8.45802-0.235025-7.68129 0.547435-5.67814 2.75437-1.70536 2.39324 0 0" fill="#000000" fill-rule="nonzero" fill-opacity="1" transform="matrix(1.00337 0 0 -1 123.808 158.714)"/><path d="M0 0C0.807969-0.0200631 1.33534 0.699342 1.66524 1.34709-0.865865 2.01777-3.50531 1.77988-6.08227 1.63371-9.74492 1.57352-13.4024 1.30123-17.0682 1.30697-18.544 1.1436-20.0892 1.34709-21.5048 0.825452-21.5907 0.619089-21.763 0.206363-21.8461 0-21.6337-0.321009-21.4962-0.805389-21.0404-0.848382-19.2462-1.36429-17.3892-0.805389-15.5664-0.81972-10.3841-0.421325-5.18516-0.338206 0 0M7.73002 3.52537C8.30325 1.75982 8.4778-0.280883 7.55776-1.96045 6.64088-3.57983 4.98969-4.82087 3.11236-5.0215-4.72629-5.88995-12.6311-5.36831-20.493-5.81829-21.9894-6.11351-23.6056-5.78963-24.7954-4.81514-26.7788-3.23302-27.6329-0.432789-27.0049 2.00631-26.6899 2.91775-25.9616 3.59702-25.3282 4.29637-24.2878 5.4113-22.9439 6.317-21.3987 6.5119-19.9831 6.66668-18.573 6.91603-17.1428 6.94469-13.5801 7.30296-9.99141 7.12813-6.42305 7.35169-2.7773 7.61824 0.879623 7.2571 4.47378 6.64948 6.09344 6.42305 7.24535 5.00144 7.73002 3.52537" fill="#000000" fill-rule="nonzero" fill-opacity="1" transform="matrix(1.00337 0 0 -1 114.338 104.713)"/><path d="M0 0C0.160505 1.76842 0.169103 3.61995-0.490112 5.29952-0.971626 6.53483-2.03497 7.62684-3.39353 7.816-4.92119 8.07969-6.48038 8.09402-8.0195 8.24306-10.3325 8.16854-12.8203 7.87046-14.6948 6.38579-16.6982 4.66037-17.1425 1.8458-17.1597-0.659215-11.4388-0.759531-5.71798-0.243623 0 0M-2.08943-13.1413C-0.0229292-11.5879 0.756665-8.7561 0.352537-6.27974-5.26799-5.02724-11.0003-6.24822-16.5979-6.99055-16.2941-9.31214-15.5432-11.8601-13.4967-13.2302-10.9401-14.3107-8.06536-14.4597-5.33965-14.1072-4.20178-14.07-3.01806-13.8378-2.08943-13.1413M51.479 23.9439C53.706 23.7805 55.7754 21.7512 55.6005 19.4555 55.463 18.1514 54.4397 16.8157 53.021 16.8645 50.3612 16.8387 47.7387 17.4377 45.082 17.5036 40.7481 17.8762 36.3944 17.8533 32.0525 17.7014 29.6934 17.4778 27.2829 17.5265 25.0129 16.7527 23.4426 16.211 21.7656 15.8756 20.3554 14.9556 19.4841 14.3824 18.6873 13.4222 18.865 12.3101 19.1344 9.89683 21.0118 7.87619 20.8398 5.38264 20.3096 2.54515 19.0886-0.0974493 18.3233-2.87189 17.5953-5.4113 17.389-8.05963 16.9877-10.6621 16.8645-11.9748 16.6266-13.276 16.5807-14.5973 15.9673-20.2322 16.4833-25.9014 16.575-31.5475 16.6323-35.1706 16.8301-38.7905 17.1683-42.3962 17.323-44.8034 17.8332-47.174 17.988-49.5816 17.9307-50.9169 17.6641-52.7 16.211-53.1984 14.9155-53.5337 13.2703-53.5312 12.3617-52.3873 10.5159-50.2781 10.4271-47.3317 10.0086-44.7005 9.03698-39.1803 8.96246-33.5598 9.01692-27.9708-0.114646-28.323-9.36086-27.8619-18.3549-29.7879-19.1717-29.9312-20.1691-30.4816-20.8226-29.6704-22.2958-28.1456-22.4277-25.8957-22.9808-23.9496-22.2442-23.5222-21.542-22.9894-20.685-22.8318-15.4056-21.6853-9.98568-21.413-4.60018-21.3672 0.0257954-21.2267 4.6575-20.7968 9.28921-21.086 9.33506-12.4362 10.1061-3.50531 13.9066 4.39668 14.2391 4.80367 13.8837 5.15335 13.6372 5.47722 11.9089 4.04701 10.8656 2.02064 10.0086-0.0114646 9.04558-2.39324 7.25424-4.51133 7.10233-7.16825 6.74979-10.4758 6.41732-14.1129 4.06994-16.6953 1.21525-19.5529-2.97793-20.3755-6.87017-20.4987-9.59588-20.5618-12.4305-20.9427-15.0559-20.0086-19.3781-18.4867-22.7458-14.4566-23.342-9.89683-24.1588-4.12153-23.9725 1.84294-22.3847 7.47206-21.9032 8.9252-21.5793 10.6707-20.1806 11.5449-13.5884 16.0849-4.60304 16.2052 2.51648 12.8375 4.97278 11.4188 5.27946 8.27172 5.62626 5.74091 6.3342 6.38293 6.62368 7.31156 7.07654 8.12555 8.98253 11.3844 11.9375 13.8607 14.0642 16.9418 13.7776 17.346 13.2617 17.5237 12.8662 17.8046 10.857 15.9587 8.48955 14.2906 5.71798 13.9209 4.10147 13.6257 2.49355 14.9585 2.33018 16.5606 2.38177 17.4577 3.04672 18.1084 3.5569 18.7848 5.90141 21.6739 8.67012 24.2305 10.6764 27.389 12.0608 29.6446 12.6598 32.2557 13.2875 34.7951 13.7805 37.5151 17.3804 38.8823 19.6561 37.4635 20.8083 36.4661 21.5621 34.8926 21.2841 33.3506 20.9487 30.6134 19.6389 28.1399 18.8851 25.5174 18.5899 24.3251 19.4784 23.3821 20.1089 22.4907 28.1084 23.0095 36.088 23.8493 44.1073 24.1072 46.561 24.3222 49.0345 24.1932 51.479 23.9439" fill="#000000" fill-rule="nonzero" fill-opacity="1" transform="matrix(1.00337 0 0 -1 65.9064 99.2268)"/><path d="M0 0C-0.0831185 0.730869-0.349671 1.43594-0.934366 1.90886-6.94441 2.04643-12.9608 1.94039-18.9653 1.6681-20.1319 1.60505-21.4102 1.77415-22.4449 1.12067-23.0611 0.748066-22.8977-0.0458585-22.9493-0.650617-22.6137-0.888508-22.2872-1.20952-21.843-1.21238-15.6145-1.35569-9.38952-1.06908-3.16423-0.879909-2.06048-0.799657-1.02608-0.384065 0 0M4.06134 4.87246C5.75237 3.68014 6.19949 1.39295 5.83291-0.535971 5.62053-1.50186 5.39697-2.60533 4.52021-3.20149 1.88593-5.33678-1.69074-5.51735-4.93552-5.52595-11.6051-5.26513-18.3061-5.9788-24.9556-5.1992-26.3084-4.98997-27.3658-3.86931-27.7788-2.60247-28.2631-1.24391-28.3176 0.235025-28.246 1.66237-27.9307 3.44225-26.403 4.71196-24.8668 5.49155-21.7398 6.8931-18.2287 6.23675-14.9327 6.76412-12.0665 6.90743-9.19462 6.77845-6.3256 6.84724-2.79737 7.10806 1.02608 6.8845 4.06134 4.87246" fill="#000000" fill-rule="nonzero" fill-opacity="1" transform="matrix(1.00337 0 0 -1 115.687 90.5452)"/><path d="M0 0C0.791059 1.14933 0.728003 2.6168 0.799657 3.94927-1.53339 4.22156-3.84638 3.61709-6.1651 3.45658-6.19949 2.07796-6.21955 0.693609-6.15363-0.685297-4.1158-0.384065-1.95472-0.696762 0 0M7.31156 13.1413C8.96533 12.5394 9.81371 10.45 9.315 8.81629 8.05389 4.1499 6.77845-0.52164 5.12755-5.06449 2.73431-6.06192 0.0945831-5.24535-2.40184-5.4113-3.3792-5.5205-4.44254-5.35684-5.32245-5.87877-5.33678-6.24535-5.31385-6.61222-5.24793-6.97622-4.41674-10.3328-3.82918-13.7461-2.8117-17.0536-2.57954-18.5758-2.4477-20.2841-3.1843-21.6913-4.88966-22.7229-7.13959-21.7257-8.2058-20.2064-10.2379-17.1138-11.2812-13.4999-11.9777-9.8997-12.2184-8.88823-12.3388-7.81342-12.9436-6.93609-16.9963-6.65234-20.0201-10.1118-23.9324-10.4701-25.7237-10.3669-26.6323-8.28319-26.3056-6.70107-26.1823-5.64632-25.3282-4.89826-24.497-4.35111-23.1643-3.57123-21.6366-3.25595-20.1863-2.77472-17.9163-2.10949-15.6578-1.18086-13.256-1.23273-13.2499 0.174549-13.2244 1.58785-13.405 2.9894-17.4119 2.90628-20.8255 0.381199-24.7521-0.100602-25.6091-0.220981-26.3228 0.490112-26.5779 1.24678-26.9447 2.29292-26.8559 3.53683-26.254 4.48267-24.5916 5.90686-22.3331 6.37117-20.2035 6.52337-17.6039 6.80396-14.8581 6.724-12.4764 7.97078-12.5366 8.32016-12.591 8.67298-12.6426 9.01979-14.9814 9.3322-17.4635 8.17141-19.6873 9.30354-21.2812 10.0659-20.9802 12.9608-19.1602 13.1668-13.9066 13.8206-8.60133 13.8034-3.31901 14.0785-2.84609 12.912-3.29006 11.665-4.1072 10.7853-4.79221 9.95129-5.65464 9.25166-6.10491 8.24306-3.82058 8.43223-1.55346 8.79881 0.739468 8.86502 2.39324 9.34939 3.09258 11.0917 4.2935 12.1582 5.15908 12.7659 6.19663 13.5282 7.31156 13.1413" fill="#000000" fill-rule="nonzero" fill-opacity="1" transform="matrix(1.00337 0 0 -1 111.169 125.507)"/><path d="M0 0C1.48753-0.0974493 3.39066-0.275151 4.16739-1.75982 2.48496-2.75151 1.06908-4.11866-0.0286615-5.73231-2.2869-8.65292-4.28777-11.7971-6.9017-14.4254-7.51506-14.0728-8.16539-13.8005-8.82775-13.5626-9.17456-9.99715-9.50101-6.43165-9.84782-2.86615-10.0086-1.75695-9.95129-0.616223-10.2723 0.464317-10.5589 1.42734-10.771 2.41617-10.7166 3.42505-9.27459 3.16423-7.816 2.92634-6.43136 2.43336-6.05905 2.28719-5.64059 2.16681-5.41417 1.80281-5.31672 0.891374-6.16223 0.266552-6.5463-0.481514-6.62941-3.02666-6.62941-5.57467-6.55174-8.11981-6.62082-8.75037-6.13328-9.22042-5.78648-9.68187-3.83778-7.6727-2.36744-5.26799-0.673546-3.04959 0.0343939-2.15821-0.599026-0.9315 0 0" fill="#000000" fill-rule="nonzero" fill-opacity="1" transform="matrix(1.00337 0 0 -1 109.567 40.121)"/><path d="M0 0C0.195185 2.0665-0.364002 4.13299-1.18372 6.01319-1.85698 7.37461-3.53683 8.44369-5.0559 7.87906-6.48009 7.47206-6.97307 5.88421-7.13099 4.57152-7.28261 2.51648-7.23102 0.295214-6.1307-1.52193-5.63773-2.26398-4.94985-3.00946-4.02981-3.16997-2.1092-3.50502-0.252222-1.86587 0 0M0.324162 10.1063C2.88622 7.20838 3.99829 3.19576 3.71482-0.621956 3.36773-3.65721 0.917169-6.72686-2.32159-6.73231-4.85784-6.67814-7.6982-5.92434-9.20035-3.71454-10.7509-1.45285-10.8997 1.38435-11.1261 4.02408-11.1837 7.1052-9.4179 10.6277-6.18803 11.307-3.99513 11.6598-1.40413 11.7484 0.324162 10.1063" fill="#000000" fill-rule="nonzero" fill-opacity="1" transform="matrix(1.00337 0 0 -1 97.2498 171.763)"/><path d="M0 0C0.272285-0.329608 0.553168-0.859846 0.166237-1.22385-0.189166-1.79421-1.06334-1.93465-1.20665-2.63686-1.7025-5.93581-1.92606-9.27488-2.46776-12.571-2.37891-13.8206-1.21525-14.7951-1.46174-16.1049-3.29321-15.9931-5.2336-16.1107-6.93609-15.3167-7.73575-14.1244-5.63486-13.6343-5.5976-12.4764-5.10749-8.98826-4.94698-5.46289-4.52852-1.96905-4.63171-1.05761-6.28261-0.151906-5.28519 0.719405-3.53397 1.08914-1.6767 0.564632 0 0" fill="#000000" fill-rule="nonzero" fill-opacity="1" transform="matrix(1.00337 0 0 -1 93.7327 35.6355)"/><path d="M0 0C1.17512 1.60218 3.32187 0.914303 4.99571 0.983091 4.68043 0.0171969 3.96103-0.831185 3.92663-1.8716 4.19318-6.07338 4.72629-10.2608 4.83234-14.4741 4.95845-15.2938 3.64861-16.0791 3.1757-15.225 0.779594-11.949-1.43308-8.54401-3.7432-5.2078-4.19032-4.62311-4.59445-3.68874-5.48295-3.84638-5.62339-4.73489-5.61766-5.64059-5.45143-6.52623-5.0473-8.83922-4.95271-11.1895-4.60018-13.5082-4.29637-14.4597-3.3534-15.0015-2.88622-15.8642-4.14733-16.9906-5.93867-16.9848-7.52652-17.088-8.53827-16.1508-7.37175-14.9785-7.39468-13.8894-7.53225-11.0175-8.08829-8.1886-8.37204-5.33105-8.45229-4.59445-8.34338-3.79479-8.73317-3.12697-9.18316-2.36171-9.75926-1.66237-10.0143-0.793925-8.48955-0.300946-6.72113 0.392663-5.17341-0.358269-2.15248-2.89195-0.739468-6.89024 2.43623-9.26341 2.4477-6.8845 1.92032-4.53999 1.84294-2.16108 1.75695-1.10347 0.662082-0.664948 0 0" fill="#000000" fill-rule="nonzero" fill-opacity="1" transform="matrix(1.00337 0 0 -1 78.0624 35.7444)"/><path d="M0 0C1.01175 0.475782 1.71969 1.64804 1.52193 2.76871 1.18372 3.726 0.206363 4.20465-0.599026 4.70909-1.39295 5.11609-2.35025 5.60333-3.23875 5.22213-4.51706 4.49126-5.50015 2.64259-4.54285 1.28977-3.59416-0.192032-1.57352-0.498711 0 0M4.59445 3.68014C5.2164 0.891374 4.33649-1.91459 3.43365-4.53712 2.84323-6.72973 0.920036-8.29752-1.11493-9.11437-2.63686-9.77932-4.35655-9.44111-5.89568-9.01692-8.27745-8.30898-10.3124-6.31414-10.7251-3.82058-10.8627-2.72285-10.2436-1.74262-9.36373-1.1436-7.93925-1.63371-7.80167-3.27028-7.11379-4.39381-5.94727-5.98166-3.54257-6.62941-1.79708-5.62339-1.08914-5.23073-0.472915-4.48553-0.481514-3.64288-2.67699-3.41646-5.08456-3.06105-6.75266-1.4818-8.04243-0.07452-9.15163 1.97478-8.37204 3.89797-7.79307 5.42563-7.09087 7.19118-5.47435 7.87333-4.05561 8.36917-2.49069 8.23733-1.03468 7.98224 1.35282 7.53512 3.77473 6.07911 4.59445 3.68014" fill="#000000" fill-rule="nonzero" fill-opacity="1" transform="matrix(1.00337 0 0 -1 70.1051 166.226)"/><path d="M0 0C0.255088-1.33849-0.292348-2.94354-1.59931-3.51964-3.08685-4.20178-4.6403-4.82947-6.27974-5.01577-8.26599-5.25939-10.2465-3.95529-10.9974-2.13815-12.0894 0.415592-13.0983 3.0066-14.1789 5.56321-14.6489 6.75839-16.1938 7.15679-16.4632 8.47522-14.7464 9.26341-13.0152 10.1892-11.0691 10.172-11.3184 9.01979-12.2671 7.87619-11.6853 6.67527-10.4758 3.93236-9.46977 1.092-8.06536-1.56492-7.6383-2.43336-6.64661-2.93781-5.69218-2.84609-4.15019-2.71138-2.73718-1.8802-1.6767-0.78246-1.55346 0.730869-2.28146 2.09803-2.7945 3.47091-3.68874 5.63773-4.44254 7.86473-5.40843 10.0029-5.79536 10.9401-6.92463 11.2239-7.36315 12.1124-6.44598 13.2216-4.90399 13.5827-3.52537 13.3677-3.5311 12.4792-3.80339 11.5621-3.5483 10.6879-2.34451 7.13386-0.705074 3.70594 0 0" fill="#000000" fill-rule="nonzero" fill-opacity="1" transform="matrix(1.00337 0 0 -1 66.7291 51.9296)"/><path d="M0 0C-0.263686-0.616223-0.5589-1.22958-0.974492-1.76268-3.78332-5.54314-6.49184-9.39525-9.28347-13.1875-9.58729-13.583-9.8653-14.0129-10.2436-14.3483-11.049-14.6661-11.7828-14.0298-12.3359-13.5282-12.9006-13.0037-13.7289-12.3847-13.3505-11.5076-11.5133-8.5526-9.25195-5.88421-7.41761-2.92348-8.40643-2.11522-9.44971-1.32703-10.2092-0.286615-10.1834 0.713386-9.53283 1.75409-8.54114 2.0579-7.76441 1.69963-7.02781 1.20063-6.17656 1.04901-4.87819 1.17512-3.77473 1.96045-2.53941 2.32416-1.55059 1.73116-0.573231 1.0344 0 0" fill="#000000" fill-rule="nonzero" fill-opacity="1" transform="matrix(1.00337 0 0 -1 55.1566 151.445)"/><path d="M0 0C0.879909-0.888508 2.20981-2.01491 1.43308-3.39926 0.386931-3.33334-0.593294-2.94354-1.59358-2.67412-5.52308-1.53339-9.35226-0.0315277-13.362 0.813988-11.2067-1.6681-8.58413-3.67154-6.30841-6.03325-5.47435-6.95902-4.07281-6.58642-2.97793-6.88737-3.51964-8.71884-5.28232-9.89396-6.79565-10.9172-7.82174-10.4557-7.76155-9.01119-8.61279-8.34051-11.1178-6.07052-13.4767-3.65148-15.9416-1.33849-16.595-0.659215-17.5982-0.673546-18.4523-0.470049-18.673-0.257954-18.8937-0.0458585-19.1144 0.166237-18.0797 1.75695-16.5692 2.94067-15.3425 4.36802-11.6337 3.29321-7.92492 2.2184-4.19318 1.22385-5.45143 2.90628-7.10806 4.24191-8.54114 5.77243-9.35226 6.63515-10.6105 6.28834-11.6538 6.39152-12.1238 6.65808-12.0178 7.36028-11.9203 7.8074-11.3299 9.03698-10.0659 9.75352-8.85068 10.2465-6.27974 6.51763-2.96647 3.39926 0 0" fill="#000000" fill-rule="nonzero" fill-opacity="1" transform="matrix(1.00337 0 0 -1 48.5569 61.471)"/><path d="M0 0C0.401262 0.576097 0.799657 1.15506 1.19232 1.73689-0.00859846 2.09229-1.22385 2.40184-2.43623 2.71998-1.64804 1.79135-0.839783 0.879909 0 0M7.69562 3.1671C8.89654 2.94067 10.4328 3.27601 11.2124 2.08943 10.7194 1.1436 10.0803 0.289482 9.39812-0.524506 8.30038 0.449986 6.83864 0.779594 5.43996 1.06048 4.43681-0.315277 3.45372-1.70823 2.48782-3.11264 3.02666-3.74033 3.50531-4.41674 4.05847-5.03583 4.76068-5.86415 5.95873-5.80396 6.83578-6.36 5.76384-7.8074 5.23646-9.77645 3.50531-10.6277 0.455719-5.17627-3.70594-0.478648-7.21698 4.66037-6.90743 5.0387-6.60362 5.43136-6.23675 5.7581-5.79823 5.88995-5.33678 5.78963-4.89826 5.72944-0.679279 4.96991 3.47091 3.87504 7.69562 3.1671" fill="#000000" fill-rule="nonzero" fill-opacity="1" transform="matrix(1.00337 0 0 -1 29.1337 76.6358)"/><path d="M0 0C0.762397-1.79135 2.06077-3.47693 1.92892-5.52337 1.06334-5.29665 0.140442-5.04185-0.7452-5.30239-4.09573-6.46891-7.47493-7.54974-10.8513-8.63601-12.0235-8.99428-12.9464-9.84811-13.8091-10.685-15.3053-9.34395-15.9215-7.36602-16.5291-5.51448-17.2915-3.12984-18.802-0.900259-18.6415 1.70221-17.7874 2.10662-16.9734 2.64259-16.0447 2.86014-15.1276 1.83405-15.718 0.378046-15.8355-0.81972-15.4916-2.57381-14.54-4.13873-13.8091-5.75237-12.1955-5.30239-10.5045-4.95271-9.08571-4.01863-9.07998-2.68272-9.85097-1.53912-10.192-0.286615-10.5274 0.879623-11.7828 1.28662-12.7343 1.82259-11.7942 3.45372-9.64748 4.02408-7.92205 3.46518-8.83922 1.32703-7.97937-1.00631-7.04501-2.97535-5.48869-3.29608-4.05847-2.37919-2.57667-2.07223-1.50473-1.94927-1.21812-0.805676-0.802523 0.00286615-0.601892 0.00286615-0.200631 0 0 0" fill="#000000" fill-rule="nonzero" fill-opacity="1" transform="matrix(1.00337 0 0 -1 34.7904 124.409)"/><path d="M0 0C0.369734 1.33563 0.85698 2.67699 0.816854 4.08427 0.799657 4.88393 0.647751 5.77243-0.0171969 6.29694-2.31872 8.38923-5.57754 8.67872-8.53254 8.95387-9.34366 8.92807-10.3669 9.22902-10.9659 8.50961-12.3445 6.84151-12.4993 4.58585-12.7544 2.52795-8.52394 1.58212-4.25337 0.834051 0 0M3.00373 5.68645C3.26455 4.3107 2.67126 2.98367 2.51075 1.63657 2.22127-0.318143 2.05503-2.48209 0.667814-4.02408-0.759531-2.75437-2.75151-2.69132-4.53999-2.40184-8.07109-1.81428-11.671-0.524506-15.2623-1.48753-15.0588 1.79994-14.5773 5.06163-14.1129 8.32045-13.8923 9.68187-13.0353 11.049-11.6509 11.4503-8.64145 12.2356-5.49155 11.6652-2.53081 10.9344-1.5076 10.6592-0.406994 10.5188 0.487246 9.90543 1.94612 9.01119 2.79163 7.34882 3.00373 5.68645" fill="#000000" fill-rule="nonzero" fill-opacity="1" transform="matrix(1.00337 0 0 -1 29.0273 97.5759)"/><path d="M0 0C-0.0945831-1.45314-0.07452-3.01519-0.828319-4.31643-1.20952-5.00173-1.90886-5.47722-2.68272-5.60906-6.5205-6.26857-10.4385-6.11924-14.2878-6.67241-15.1419-6.93323-15.8871-7.8418-16.8501-7.4606-17.2428-6.05618-17.1597-4.5718-16.896-3.15277-12.2987-3.20723-7.69562-3.04099-3.12984-2.50215-2.56234-2.25853-2.30152-1.58785-2.13242-1.02895-1.79708 0.315277-2.15248 1.74262-2.70278 2.97793-3.12411 3.89224-4.26197 3.89797-5.11895 3.87504-8.48668 3.79192-11.8573 3.70307-15.2135 3.41646-15.7008 2.67699-16.1938 1.31843-17.3259 1.72829-17.4148 1.83147-17.5867 2.0407-17.6756 2.14388-17.9937 3.73747-18.2402 5.49442-17.3345 6.95329-16.5434 6.5291-15.8183 5.85269-14.8639 5.87562-11.8917 5.996-8.91947 6.1307-5.94727 6.25108-4.61164 6.12784-3.06965 6.33707-1.98051 5.38264-0.427057 4.0814-0.0200631 1.92892 0 0" fill="#000000" fill-rule="nonzero" fill-opacity="1" transform="matrix(1.00337 0 0 -1 31.9203 110.416)"/></g></g></g></g></g></g></svg>